<?xml version="1.0" encoding="UTF-8"?>
<svg id="Layer_2" xmlns="http://www.w3.org/2000/svg" viewBox="0 0 1279 578">
  <defs>
    <style>
      .cls-1 {
        stroke-linecap: round;
        stroke-width: 12.92px;
      }

      .cls-1, .cls-2, .cls-3 {
        fill: #fff;
      }

      .cls-1, .cls-3 {
        stroke: #000;
        stroke-linejoin: round;
      }

      .cls-3 {
        stroke-linecap: square;
        stroke-width: 13.53px;
      }

      .cls-4 {
        stroke: #fff;
        stroke-miterlimit: 10;
        stroke-width: 2.61px;
      }

      .cls-5 {
        fill: #50ffff;
      }
    </style>
  </defs>
  <g>
    <g>
      <path class="cls-2" d="M257,333s-26.4,30.39-94.67-106.18c-4.25-8.49-16.93-6.56-18.38,2.83-14.05,91-40.31,190.07-114.84,196.45-8.91.76-10.09,13.89-2.19,18.07,49.1,25.95,72.99,47.97,370.1,99.64"/>
      <path d="M271.63,345.71l6.35-7.31-14.63-12.71-6.35,7.31s-3.15,3.62-10.08,2.75c-6.57-.83-16.54-5.71-30.46-21.55-13.92-15.85-31.78-42.66-54.13-87.37l-17.33,8.66c20.56,41.13,39.71,71.91,56.91,91.49,15.03,17.11,28.96,26.27,42.59,27.99,12.68,1.6,22.33-3.73,27.14-9.26M163.09,232.61l-19.15-2.96c-7.03,45.5-17.11,93.02-34.74,129.96-17.64,36.94-42.83,63.3-80.09,66.49l1.65,19.31c40.78-3.49,73.06-29.54,95.93-77.45,15.63-32.74,27.2-75.75,36.41-135.35M35.97,427.04l-9.05,17.13c3.73,1.97,7.32,3.92,10.89,5.87,43.42,23.6,84.69,46.04,359.2,93.78l9.54,1.66,3.32-19.09-9.54-1.66c-271.38-47.2-311.16-68.82-353.27-91.71-3.57-1.94-7.26-3.95-11.09-5.97M153.64,221.42c-.53,0-1.06.04-1.58.12-3.87.61-7.39,3.43-8.11,8.12l9.72,1.5,8.66-4.33c-1.84-3.69-5.28-5.41-8.69-5.41h0ZM153.66,231.15l-8.67,4.33c1.61,3.22,5.11,5.3,8.67,5.3.46,0,.92-.03,1.39-.11,4.04-.63,7.42-4.03,8.04-8.07l-9.43-1.46h0ZM29.11,426.1c-4.08.35-6.54,3.29-7.25,6.78-.84,4.13.77,9.02,5.06,11.29l3.22-6.08-1.02-11.98h0ZM35.97,427.04l-5.84,11.05.63,7.32c4.83-.41,9.17-4.14,10.09-8.67.9-4.44-1.8-8.08-4.88-9.7h0Z"/>
    </g>
    <g>
      <path class="cls-2" d="M470.79,540.4c-24.05,0-48.31-1.81-72.1-5.37-84.73-12.69-171.27-96.5-211.93-140.98l13.95-6.79c3.82-1.86,7.87-4.02,12.03-6.43,50.78-29.38,88.32-79.28,103.01-136.9,13.82-54.24,55.5-151.96,179.31-196.95,27.53-10,58.33-15.29,89.07-15.29,52.85,0,103.35,15.36,142.19,43.26,42.43,30.47,70.24,75.28,80.69,129.85l-139.22,93.5c-1.12.75-2.07,1.73-2.79,2.87-1.93,3.05-2.05,6.91-.31,10.06,3.5,6.36,5.48,6.61,52.92,6.61h21.76c18.17-.01,49.36-.01,67.51,1.36-4.32,30.47-15.34,59.17-32.83,85.43-18.43,27.68-43.62,52.14-74.88,72.69-61.85,40.67-142.96,63.06-228.39,63.06Z"/>
      <path d="M584.13,41.38c50.84,0,99.33,14.72,136.54,41.44,20.09,14.43,36.81,32.21,49.68,52.84,11.97,19.18,20.65,40.91,25.87,64.72l-133.83,89.88c-2.24,1.5-4.14,3.46-5.58,5.74-3.81,6.04-4.05,13.67-.6,19.91,5.23,9.49,15.23,10.44,18.99,10.79,2.63.25,6.16.43,10.8.56,8.49.23,20.22.27,31.63.27,3.4,0,6.91,0,10.48,0,3.7,0,7.46,0,11.26,0,13.86,0,38.11,0,56.16.75-4.98,25.16-14.87,48.98-29.53,71-17.7,26.59-41.97,50.13-72.14,69.97-60.29,39.64-139.51,61.47-223.07,61.47-23.57,0-47.35-1.77-70.67-5.26-38.89-5.82-82.8-28.15-130.51-66.36-26.22-21-49.16-43.32-66.86-62.05l2.19-1.07c4.04-1.96,8.29-4.24,12.64-6.76,26.65-15.42,49.6-35.82,68.21-60.62,18.46-24.62,31.7-52.29,39.34-82.27,6.42-25.19,19.79-62.81,47.03-99.01,31.19-41.44,73.64-72.13,126.2-91.22,26.48-9.62,56.13-14.71,85.76-14.71h0M584.12,22c-31.97,0-63.63,5.43-92.38,15.87-127.54,46.34-170.83,146.53-185.39,203.66-14.02,55.03-49.31,102.46-98.47,130.9-3.95,2.28-7.77,4.33-11.42,6.1l-25.51,12.41c28.21,31.98,127.14,138.81,226.29,153.65,24.62,3.69,49.22,5.48,73.53,5.48,174.76,0,332.86-92.61,346.87-239.42-13.71-2.3-47.07-2.52-78.29-2.52-7.47,0-14.82.01-21.74.01-25.62,0-45.46-.17-44.43-1.81l144.46-97.03c-21.46-129.56-129.2-187.32-233.53-187.32h0Z"/>
    </g>
    <circle class="cls-3" cx="607.88" cy="210.26" r="55.24"/>
    <circle class="cls-4" cx="607.88" cy="210.26" r="32.6"/>
    <g>
      <path class="cls-2" d="M480.18,157.87s-88.52,113.13,33.81,125.4c0,0-97.82,44.27,37.58,80.07-60.58,19.18,20.48,98.14,79.52,56.53"/>
      <path d="M483.64,160.58c-14.6,20.6-30.75,50.34-28.4,76.13,1.97,21.31,19.82,31.87,39.1,36.25,6.6,1.57,13.46,2.53,20.38,3.11,7.26.65,9.04,10.39,2.64,13.62-9.36,4.53-19.34,10.78-25.82,18.7-6.34,7.7-5.81,14.7,1.44,21.52,7.53,7.12,18.01,11.98,27.85,15.97,10.48,4.17,21.48,7.5,32.6,10.46,3.87,1.03,6.17,5,5.14,8.87-.66,2.48-2.53,4.32-4.81,5.04-20.54,5.88-21.26,19.66-8.38,34.53,20.36,22.67,57.58,29.57,83.13,11.42,4.85-3.16,9.82,3.71,5.18,7.32-11.38,8.41-25.52,13.25-39.71,13.46-24.94.26-50.65-11.44-64.61-32.59-10.18-15.91-7.17-33.7,9.61-43.32,3.4-2,6.9-3.46,10.41-4.64l.34,13.91c-22.82-6.36-60.78-17-73.54-38.51-13.12-23.22,12.07-43.42,30.49-53,1.33-.69,2.92-1.53,4.34-2.17,0,0,2.26,13.81,2.26,13.81-7.46-.88-14.94-2.16-22.35-4.18-49.06-13.1-57.23-50.23-37.36-93.15,4.65-10.19,10.25-19.76,16.55-28.95,2.11-3.06,4.22-6,6.62-9.03,1.5-1.9,4.26-2.22,6.16-.72,1.89,1.49,2.21,4.24.75,6.13h0Z"/>
    </g>
    <g>
      <path class="cls-2" d="M406.2,215.54s-88.52,113.13,33.81,125.4c0,0-97.82,44.27,37.58,80.07-60.58,19.18,20.48,98.14,79.52,56.53"/>
      <path d="M409.65,218.24c-14.6,20.6-30.75,50.34-28.4,76.13,1.97,21.31,19.82,31.87,39.1,36.25,6.6,1.57,13.46,2.53,20.38,3.11,7.26.65,9.04,10.39,2.64,13.62-9.36,4.53-19.34,10.78-25.82,18.7-6.34,7.7-5.81,14.7,1.44,21.52,7.53,7.12,18.01,11.98,27.85,15.97,10.48,4.17,21.48,7.5,32.6,10.46,3.87,1.03,6.17,5,5.14,8.87-.66,2.48-2.53,4.32-4.81,5.04-20.54,5.88-21.26,19.66-8.38,34.53,20.36,22.67,57.58,29.57,83.13,11.42,4.85-3.16,9.82,3.71,5.18,7.32-11.38,8.41-25.52,13.25-39.71,13.46-24.94.26-50.65-11.44-64.61-32.59-10.18-15.91-7.17-33.7,9.61-43.32,3.4-2,6.9-3.46,10.41-4.64l.34,13.91c-22.82-6.36-60.78-17-73.54-38.51-13.12-23.22,12.07-43.42,30.49-53,1.33-.69,2.92-1.53,4.34-2.17,0,0,2.26,13.81,2.26,13.81-7.46-.88-14.94-2.16-22.35-4.18-49.06-13.1-57.23-50.23-37.36-93.15,4.65-10.19,10.25-19.76,16.55-28.95,2.11-3.06,4.22-6,6.62-9.03,1.5-1.9,4.26-2.22,6.16-.72,1.89,1.49,2.21,4.24.75,6.13h0Z"/>
    </g>
    <g>
      <path class="cls-2" d="M341.24,304.51s-88.52,113.13,33.81,125.4c0,0-98.46,34.92,36.94,70.72"/>
      <path d="M344.69,307.21c-14.6,20.61-30.75,50.33-28.4,76.13,2.69,29.25,34.69,37.42,59.48,39.36,7.81.75,9.01,11.5,1.7,14.04-9.05,3.88-18.51,8.52-25.48,15.47-3.88,3.96-5.64,8.2-1.91,12.85,11.53,14.42,45.23,24.98,63.06,31.23,5.19,1.85,3.21,9.62-2.29,8.67-11.16-2.19-22.17-4.97-33.02-8.54-13.78-4.74-29.55-10.73-39.33-22.4-8.51-10.36-6.61-23,2.46-32.27,7-7.18,14.64-11.4,23.23-15.34,2.76-1.24,5.55-2.36,8.45-3.33,0,0,1.7,14.04,1.7,14.04-15.21-1.84-30.43-5.13-44.03-12.97-23.72-13.59-29.89-37.67-23.28-63.05,5.74-21.88,17.18-41.46,30.77-59.3,3.68-4.39,10.32.72,6.91,5.4h0Z"/>
    </g>
    <path class="cls-1" d="M105.29,424.32s43.06,25.84,107.65,34.45"/>
    <path class="cls-1" d="M165.57,316.68c6.46,8.61,25.84,32.29,40.91,38.75"/>
    <path class="cls-1" d="M182.8,370.5c-17.22-6.46-27.99-19.38-27.99-19.38"/>
    <path class="cls-1" d="M184.95,424.32c-34.45-8.61-55.98-21.53-55.98-21.53"/>
  </g>
  <g>
    <path class="cls-5" d="M1042.84,461.56c-49.76,0-97.34-18.53-133.96-52.18-34.55-31.74-56.56-74.28-62.48-120.47-20.25-.98-36.58-1.83-48.62-2.53-7.89-.46-14.02-.86-18.21-1.19-2.36-.19-4.12-.35-5.39-.5-1.96-.24-7.92-.95-9.18-7.15-.92-4.31,1.19-7.84,6.3-10.43,1.26-.64,3.03-1.48,5.42-2.58,4.25-1.96,10.5-4.74,18.58-8.28,12.58-5.51,29.95-12.99,51.67-22.26,6.23-41.55,25.93-80.65,55.82-110.54,37.42-37.41,87.16-58.01,140.06-58.01h13.9c109.21,0,198.06,88.85,198.06,198.06,0,52.9-20.6,102.64-58.01,140.05-37.42,37.41-87.16,58.01-140.06,58.01h-13.9Z"/>
    <path d="M1056.74,74c104.66,0,189.5,84.84,189.5,189.5,0,52.33-21.21,99.7-55.5,134-34.3,34.29-81.67,55.5-134,55.5h-13.9c-98.85,0-180.03-75.69-188.73-172.28-41.44-1.98-80.56-4.07-80.73-4.9-.18-.84,40.64-18.47,81.41-35.86,5.31-42.92,24.98-81.38,54.05-110.46,34.3-34.29,81.67-55.5,134-55.5h13.9M1056.74,56.87h-13.9c-27.89,0-54.95,5.47-80.43,16.24-24.6,10.41-46.7,25.3-65.68,44.27-16,16-29.18,34.36-39.18,54.55-8.79,17.75-14.93,36.56-18.3,56.03-19.72,8.43-35.64,15.29-47.4,20.44-8.13,3.56-14.43,6.36-18.73,8.34-2.49,1.15-4.36,2.03-5.71,2.72-.99.5-1.75.92-2.42,1.32-8.01,4.81-9.53,12.91-8.4,18.47h0s.02.1.03.15c0,0,0,0,0,0,1.16,5.38,5.39,11.67,13.86,13.37.76.15,1.6.28,2.66.41,1.39.17,3.26.34,5.73.54,4.25.34,10.43.74,18.39,1.21,10.63.62,24.61,1.36,41.67,2.2,7.44,45.43,29.88,87.08,64.14,118.56,38.21,35.1,87.84,54.43,139.76,54.43h13.9c27.89,0,54.95-5.47,80.43-16.24,24.6-10.41,46.7-25.3,65.68-44.27,18.97-18.98,33.87-41.07,44.27-65.68,10.78-25.48,16.24-52.55,16.24-80.43s-5.47-54.95-16.24-80.43c-10.41-24.61-25.3-46.7-44.27-65.67s-41.07-33.87-65.67-44.27c-25.48-10.78-52.55-16.24-80.43-16.24h0Z"/>
  </g>
  <g>
    <g>
      <path d="M949.56,329.01c-5.82,0-10.97-2.64-14.49-7.42-2.88-3.9-4.28-8.88-4.28-15.2v-54.85h-4.73c-7.36,0-11.75-3.23-14.14-5.93-2.13-2.41-4.68-6.64-4.68-13.02s2.7-10.92,4.96-13.35c2.41-2.58,6.77-5.67,13.85-5.67h46.9c7.4,0,11.81,3.24,14.21,5.96,3.08,3.49,4.7,8,4.7,13.05,0,6.45-2.63,10.7-4.83,13.13-2.41,2.65-6.8,5.82-14.09,5.82h-4.73v54.85c0,6.36-1.39,11.34-4.25,15.22-3.51,4.77-8.63,7.39-14.42,7.39Z"/>
      <path d="M1037.98,329.01c-3.32,0-6.35-.84-9.01-2.51-2.29-1.43-4.19-3.34-5.67-5.68-1.04-1.65-1.98-3.69-2.93-6.42-.67-1.91-1.25-3.62-1.73-5.09l-.08-.24-1.03-3.38h-12.71l-1.06,3.56c-1.7,5.69-3.12,9.35-4.63,11.85-3.03,5.02-8.29,7.9-14.46,7.9-5.22,0-10.06-2.35-13.63-6.62-3.13-3.74-4.79-8.26-4.79-13.08,0-2.17.28-4.39.84-6.61.39-1.58,1-3.62,1.84-6.23l18.62-59.15c.5-1.6,1.91-6.1,1.91-6.1.97-3.1,2.02-5.69,3.21-7.92,1.68-3.13,3.96-5.73,6.77-7.73,3.28-2.32,7.31-3.55,11.66-3.55s8.38,1.2,11.71,3.55c2.78,1.97,5.04,4.51,6.71,7.55,1.18,2.14,2.18,4.45,2.98,6.87.61,1.85,1.37,4.27,2.26,7.21l18.98,58.68c1.94,5.83,2.8,9.93,2.8,13.31,0,4.68-1.59,9.14-4.6,12.91-3.56,4.46-8.53,6.91-13.97,6.91Z"/>
      <path d="M1064.76,327.45c-8.54,0-13.33-3.8-15.85-7-3.06-3.88-4.56-9.01-4.56-15.68v-70.2c0-6.23,1.36-11.15,4.15-15.03,3.49-4.85,8.65-7.53,14.52-7.53s10.97,2.61,14.5,7.34c2.9,3.9,4.31,8.88,4.31,15.22v54.98h18.54c5.62,0,10.6,2.14,14.02,6.04,3.1,3.53,4.74,8.02,4.74,12.98s-1.67,9.58-4.83,13.07c-2.41,2.65-6.78,5.82-13.94,5.82h-35.62Z"/>
      <path d="M1172.51,329.01c-4.75,0-9.03-1.5-12.38-4.35-2.48-2.11-4.54-4.82-6.12-8.04-.87-1.78-1.67-3.44-2.38-4.95l-7.95-15.3v10.03c0,6.41-1.43,11.43-4.38,15.33-3.54,4.7-8.67,7.29-14.44,7.29-3.62,0-7.16-1.16-10.24-3.36-2.82-2.02-4.99-4.7-6.45-7.97l-.09-.2-.08-.21c-.91-2.27-1.46-4.8-1.63-7.53-.12-1.8-.17-4.21-.17-7.39v-67.77c0-6.18,1.32-11.06,4.02-14.92,3.45-4.92,8.65-7.64,14.64-7.64s10.97,2.61,14.5,7.34c2.67,3.58,4.07,8.07,4.29,13.69l8.6-11.23c1.83-2.41,3.48-4.25,5.01-5.62,2.14-1.91,5.87-4.19,11.46-4.19s10.37,2.26,13.83,6.38c3.03,3.6,4.63,8.1,4.63,13.01,0,5.42-2.01,10.57-5.98,15.31l-12.9,15.3,16.82,30.17c1.75,3.09,3.06,5.81,4,8.29,1.21,3.21,1.83,6.46,1.83,9.65,0,4.73-1.6,9.11-4.63,12.66-3.43,4.02-8.34,6.22-13.83,6.22Z"/>
    </g>
    <path class="cls-2" d="M1132.32,234.57v31.96l28.96-37.8c1.39-1.82,2.57-3.17,3.55-4.04.98-.87,2.28-1.31,3.9-1.31,2.12,0,3.83.78,5.14,2.33,1.31,1.55,1.96,3.45,1.96,5.69,0,2.7-1.11,5.37-3.33,8.02l-17.93,21.26,20.67,37.06c1.46,2.57,2.55,4.82,3.28,6.75.73,1.93,1.09,3.8,1.09,5.63,0,2.03-.64,3.79-1.91,5.29-1.28,1.49-3.01,2.24-5.19,2.24-2.05,0-3.73-.55-5.02-1.65-1.29-1.1-2.38-2.56-3.28-4.38-.89-1.82-1.69-3.48-2.38-4.97l-17.44-33.58-12.07,14.49v18.84c0,3.81-.7,6.64-2.09,8.49-1.39,1.84-3.18,2.77-5.37,2.77-1.26,0-2.47-.41-3.63-1.24-1.16-.83-2.05-1.95-2.68-3.36-.46-1.16-.74-2.51-.84-4.04-.1-1.53-.15-3.75-.15-6.65v-67.77c0-3.73.65-6.53,1.96-8.39,1.31-1.87,3.09-2.8,5.34-2.8s4.02.92,5.39,2.77c1.37,1.84,2.06,4.65,2.06,8.42Z"/>
    <path class="cls-2" d="M972.96,240.17h-16.1v66.22c0,3.81-.68,6.64-2.04,8.49-1.36,1.84-3.11,2.77-5.27,2.77s-3.97-.93-5.34-2.8c-1.37-1.87-2.06-4.68-2.06-8.46v-66.22h-16.1c-2.52,0-4.39-.69-5.61-2.08-1.23-1.39-1.84-3.22-1.84-5.5s.64-4.23,1.91-5.6c1.27-1.37,3.12-2.05,5.54-2.05h46.9c2.55,0,4.45.71,5.69,2.11,1.24,1.41,1.86,3.25,1.86,5.53s-.63,4.11-1.89,5.5c-1.26,1.39-3.15,2.08-5.66,2.08Z"/>
    <path class="cls-2" d="M1029.44,305.77l-3.48-11.44h-29.61l-3.48,11.69c-1.36,4.56-2.52,7.64-3.48,9.23-.96,1.6-2.53,2.39-4.72,2.39-1.86,0-3.49-.85-4.92-2.55-1.42-1.7-2.14-3.63-2.14-5.78,0-1.24.16-2.53.5-3.86.33-1.33.88-3.17,1.64-5.53l18.63-59.19c.53-1.7,1.17-3.74,1.91-6.12.75-2.38,1.54-4.36,2.38-5.94.84-1.57,1.95-2.85,3.33-3.82,1.37-.97,3.07-1.46,5.09-1.46s3.77.49,5.14,1.46c1.37.97,2.48,2.23,3.33,3.76.84,1.53,1.56,3.18,2.14,4.94.58,1.76,1.32,4.11,2.21,7.06l19.03,58.82c1.49,4.48,2.24,7.73,2.24,9.76s-.7,4.05-2.11,5.81c-1.41,1.76-3.1,2.64-5.09,2.64-1.16,0-2.15-.26-2.98-.78-.83-.52-1.52-1.22-2.09-2.11-.56-.89-1.17-2.26-1.81-4.1-.65-1.84-1.2-3.47-1.66-4.88ZM1000.23,280.46h21.76l-10.98-37.62-10.78,37.62Z"/>
    <path class="cls-2" d="M1070.47,234.57v66.34h29.91c2.38,0,4.21.73,5.49,2.18,1.27,1.45,1.91,3.28,1.91,5.47s-.63,4.05-1.89,5.44c-1.26,1.39-3.1,2.08-5.51,2.08h-35.62c-3.21,0-5.52-.89-6.93-2.67-1.41-1.78-2.11-4.66-2.11-8.64v-70.2c0-3.73.67-6.53,2.01-8.39,1.34-1.87,3.1-2.8,5.29-2.8s4.02.92,5.39,2.77c1.37,1.84,2.06,4.65,2.06,8.42Z"/>
  </g>
</svg>