<?xml version="1.0" encoding="UTF-8"?>
<svg id="Layer_2" xmlns="http://www.w3.org/2000/svg" viewBox="0 0 2302 578">
  <defs>
    <style>
      .cls-1 {
        stroke-linecap: round;
        stroke-width: 12.92px;
      }

      .cls-1, .cls-2, .cls-3 {
        fill: #fff;
      }

      .cls-1, .cls-3 {
        stroke: #000;
        stroke-linejoin: round;
      }

      .cls-3 {
        stroke-linecap: square;
        stroke-width: 13.53px;
      }

      .cls-4 {
        stroke: #fff;
        stroke-miterlimit: 10;
        stroke-width: 2.61px;
      }

      .cls-5 {
        fill: #50ffff;
      }
    </style>
  </defs>
  <g>
    <g>
      <path class="cls-2" d="M257,333s-26.4,30.39-94.67-106.18c-4.25-8.49-16.93-6.56-18.38,2.83-14.05,91-40.31,190.07-114.84,196.45-8.91.76-10.09,13.89-2.19,18.07,49.1,25.95,72.99,47.97,370.1,99.64"/>
      <path d="M271.63,345.71l6.35-7.31-14.63-12.71-6.35,7.31s-3.15,3.62-10.08,2.75c-6.57-.83-16.54-5.71-30.46-21.55-13.92-15.85-31.78-42.66-54.13-87.37l-17.33,8.66c20.56,41.13,39.71,71.91,56.91,91.49,15.03,17.11,28.96,26.27,42.59,27.99,12.68,1.6,22.33-3.73,27.14-9.26M163.09,232.61l-19.15-2.96c-7.03,45.5-17.11,93.02-34.74,129.96-17.64,36.94-42.83,63.3-80.09,66.49l1.65,19.31c40.78-3.49,73.06-29.54,95.93-77.45,15.63-32.74,27.2-75.75,36.41-135.35M35.97,427.04l-9.05,17.13c3.73,1.97,7.32,3.92,10.89,5.87,43.42,23.6,84.69,46.04,359.2,93.78l9.54,1.66,3.32-19.09-9.54-1.66c-271.38-47.2-311.16-68.82-353.27-91.71-3.57-1.94-7.26-3.95-11.09-5.97M153.64,221.42c-.53,0-1.06.04-1.58.12-3.87.61-7.39,3.43-8.11,8.12l9.72,1.5,8.66-4.33c-1.84-3.69-5.28-5.41-8.69-5.41h0ZM153.66,231.15l-8.67,4.33c1.61,3.22,5.11,5.3,8.67,5.3.46,0,.92-.03,1.39-.11,4.04-.63,7.42-4.03,8.04-8.07l-9.43-1.46h0ZM29.11,426.1c-4.08.35-6.54,3.29-7.25,6.78-.84,4.13.77,9.02,5.06,11.29l3.22-6.08-1.02-11.98h0ZM35.97,427.04l-5.84,11.05.63,7.32c4.83-.41,9.17-4.14,10.09-8.67.9-4.44-1.8-8.08-4.88-9.7h0Z"/>
    </g>
    <g>
      <path class="cls-2" d="M470.79,540.4c-24.05,0-48.31-1.81-72.1-5.37-84.73-12.69-171.27-96.5-211.93-140.98l13.95-6.79c3.82-1.86,7.87-4.02,12.03-6.43,50.78-29.38,88.32-79.28,103.01-136.9,13.82-54.24,55.5-151.96,179.31-196.95,27.53-10,58.33-15.29,89.07-15.29,52.85,0,103.35,15.36,142.19,43.26,42.43,30.47,70.24,75.28,80.69,129.85l-139.22,93.5c-1.12.75-2.07,1.73-2.79,2.87-1.93,3.05-2.05,6.91-.31,10.06,3.5,6.36,5.48,6.61,52.92,6.61h21.76c18.17-.01,49.36-.01,67.51,1.36-4.32,30.47-15.34,59.17-32.83,85.43-18.43,27.68-43.62,52.14-74.88,72.69-61.85,40.67-142.96,63.06-228.39,63.06Z"/>
      <path d="M584.13,41.38c50.84,0,99.33,14.72,136.54,41.44,20.09,14.43,36.81,32.21,49.68,52.84,11.97,19.18,20.65,40.91,25.87,64.72l-133.83,89.88c-2.24,1.5-4.14,3.46-5.58,5.74-3.81,6.04-4.05,13.67-.6,19.91,5.23,9.49,15.23,10.44,18.99,10.79,2.63.25,6.16.43,10.8.56,8.49.23,20.22.27,31.63.27,3.4,0,6.91,0,10.48,0,3.7,0,7.46,0,11.26,0,13.86,0,38.11,0,56.16.75-4.98,25.16-14.87,48.98-29.53,71-17.7,26.59-41.97,50.13-72.14,69.97-60.29,39.64-139.51,61.47-223.07,61.47-23.57,0-47.35-1.77-70.67-5.26-38.89-5.82-82.8-28.15-130.51-66.36-26.22-21-49.16-43.32-66.86-62.05l2.19-1.07c4.04-1.96,8.29-4.24,12.64-6.76,26.65-15.42,49.6-35.82,68.21-60.62,18.46-24.62,31.7-52.29,39.34-82.27,6.42-25.19,19.79-62.81,47.03-99.01,31.19-41.44,73.64-72.13,126.2-91.22,26.48-9.62,56.13-14.71,85.76-14.71h0M584.12,22c-31.97,0-63.63,5.43-92.38,15.87-127.54,46.34-170.83,146.53-185.39,203.66-14.02,55.03-49.31,102.46-98.47,130.9-3.95,2.28-7.77,4.33-11.42,6.1l-25.51,12.41c28.21,31.98,127.14,138.81,226.29,153.65,24.62,3.69,49.22,5.48,73.53,5.48,174.76,0,332.86-92.61,346.87-239.42-13.71-2.3-47.07-2.52-78.29-2.52-7.47,0-14.82.01-21.74.01-25.62,0-45.46-.17-44.43-1.81l144.46-97.03c-21.46-129.56-129.2-187.32-233.53-187.32h0Z"/>
    </g>
    <circle class="cls-3" cx="607.88" cy="210.26" r="55.24"/>
    <circle class="cls-4" cx="607.88" cy="210.26" r="32.6"/>
    <g>
      <path class="cls-2" d="M480.18,157.87s-88.52,113.13,33.81,125.4c0,0-97.82,44.27,37.58,80.07-60.58,19.18,20.48,98.14,79.52,56.53"/>
      <path d="M483.64,160.58c-14.6,20.6-30.75,50.34-28.4,76.13,1.97,21.31,19.82,31.87,39.1,36.25,6.6,1.57,13.46,2.53,20.38,3.11,7.26.65,9.04,10.39,2.64,13.62-9.36,4.53-19.34,10.78-25.82,18.7-6.34,7.7-5.81,14.7,1.44,21.52,7.53,7.12,18.01,11.98,27.85,15.97,10.48,4.17,21.48,7.5,32.6,10.46,3.87,1.03,6.17,5,5.14,8.87-.66,2.48-2.53,4.32-4.81,5.04-20.54,5.88-21.26,19.66-8.38,34.53,20.36,22.67,57.58,29.57,83.13,11.42,4.85-3.16,9.82,3.71,5.18,7.32-11.38,8.41-25.52,13.25-39.71,13.46-24.94.26-50.65-11.44-64.61-32.59-10.18-15.91-7.17-33.7,9.61-43.32,3.4-2,6.9-3.46,10.41-4.64l.34,13.91c-22.82-6.36-60.78-17-73.54-38.51-13.12-23.22,12.07-43.42,30.49-53,1.33-.69,2.92-1.53,4.34-2.17,0,0,2.26,13.81,2.26,13.81-7.46-.88-14.94-2.16-22.35-4.18-49.06-13.1-57.23-50.23-37.36-93.15,4.65-10.19,10.25-19.76,16.55-28.95,2.11-3.06,4.22-6,6.62-9.03,1.5-1.9,4.26-2.22,6.16-.72,1.89,1.49,2.21,4.24.75,6.13h0Z"/>
    </g>
    <g>
      <path class="cls-2" d="M406.2,215.54s-88.52,113.13,33.81,125.4c0,0-97.82,44.27,37.58,80.07-60.58,19.18,20.48,98.14,79.52,56.53"/>
      <path d="M409.65,218.24c-14.6,20.6-30.75,50.34-28.4,76.13,1.97,21.31,19.82,31.87,39.1,36.25,6.6,1.57,13.46,2.53,20.38,3.11,7.26.65,9.04,10.39,2.64,13.62-9.36,4.53-19.34,10.78-25.82,18.7-6.34,7.7-5.81,14.7,1.44,21.52,7.53,7.12,18.01,11.98,27.85,15.97,10.48,4.17,21.48,7.5,32.6,10.46,3.87,1.03,6.17,5,5.14,8.87-.66,2.48-2.53,4.32-4.81,5.04-20.54,5.88-21.26,19.66-8.38,34.53,20.36,22.67,57.58,29.57,83.13,11.42,4.85-3.16,9.82,3.71,5.18,7.32-11.38,8.41-25.52,13.25-39.71,13.46-24.94.26-50.65-11.44-64.61-32.59-10.18-15.91-7.17-33.7,9.61-43.32,3.4-2,6.9-3.46,10.41-4.64l.34,13.91c-22.82-6.36-60.78-17-73.54-38.51-13.12-23.22,12.07-43.42,30.49-53,1.33-.69,2.92-1.53,4.34-2.17,0,0,2.26,13.81,2.26,13.81-7.46-.88-14.94-2.16-22.35-4.18-49.06-13.1-57.23-50.23-37.36-93.15,4.65-10.19,10.25-19.76,16.55-28.95,2.11-3.06,4.22-6,6.62-9.03,1.5-1.9,4.26-2.22,6.16-.72,1.89,1.49,2.21,4.24.75,6.13h0Z"/>
    </g>
    <g>
      <path class="cls-2" d="M341.24,304.51s-88.52,113.13,33.81,125.4c0,0-98.46,34.92,36.94,70.72"/>
      <path d="M344.69,307.21c-14.6,20.61-30.75,50.33-28.4,76.13,2.69,29.25,34.69,37.42,59.48,39.36,7.81.75,9.01,11.5,1.7,14.04-9.05,3.88-18.51,8.52-25.48,15.47-3.88,3.96-5.64,8.2-1.91,12.85,11.53,14.42,45.23,24.98,63.06,31.23,5.19,1.85,3.21,9.62-2.29,8.67-11.16-2.19-22.17-4.97-33.02-8.54-13.78-4.74-29.55-10.73-39.33-22.4-8.51-10.36-6.61-23,2.46-32.27,7-7.18,14.64-11.4,23.23-15.34,2.76-1.24,5.55-2.36,8.45-3.33,0,0,1.7,14.04,1.7,14.04-15.21-1.84-30.43-5.13-44.03-12.97-23.72-13.59-29.89-37.67-23.28-63.05,5.74-21.88,17.18-41.46,30.77-59.3,3.68-4.39,10.32.72,6.91,5.4h0Z"/>
    </g>
    <path class="cls-1" d="M105.29,424.32s43.06,25.84,107.65,34.45"/>
    <path class="cls-1" d="M165.57,316.68c6.46,8.61,25.84,32.29,40.91,38.75"/>
    <path class="cls-1" d="M182.8,370.5c-17.22-6.46-27.99-19.38-27.99-19.38"/>
    <path class="cls-1" d="M184.95,424.32c-34.45-8.61-55.98-21.53-55.98-21.53"/>
  </g>
  <g>
    <path class="cls-5" d="M1042.6,461.56c-49.76,0-97.34-18.53-133.96-52.18-34.55-31.74-56.56-74.28-62.48-120.47-20.25-.98-36.59-1.83-48.62-2.53-7.89-.46-14.02-.86-18.21-1.19-2.36-.19-4.12-.35-5.39-.5-1.96-.24-7.91-.95-9.18-7.15-.92-4.31,1.19-7.84,6.3-10.43,1.26-.64,3.03-1.48,5.42-2.58,4.25-1.96,10.5-4.74,18.58-8.28,12.58-5.51,29.95-12.99,51.67-22.26,6.23-41.56,25.93-80.65,55.82-110.54,37.42-37.41,87.16-58.01,140.06-58.01h1030.9c109.21,0,198.06,88.85,198.06,198.06,0,52.9-20.6,102.64-58.01,140.05-37.42,37.41-87.16,58.01-140.06,58.01h-1030.9Z"/>
    <path d="M2073.5,74c104.66,0,189.5,84.84,189.5,189.5,0,52.33-21.21,99.7-55.5,134-34.3,34.29-81.67,55.5-134,55.5h-1030.9c-98.85,0-180.03-75.69-188.73-172.28-41.44-1.98-80.56-4.07-80.73-4.9-.18-.84,40.64-18.47,81.41-35.86,5.31-42.92,24.98-81.38,54.05-110.46,34.3-34.29,81.67-55.5,134-55.5h1030.9M2073.5,56.87h-1030.9c-27.89,0-54.95,5.47-80.43,16.24-24.6,10.41-46.7,25.3-65.68,44.27-16,16-29.18,34.36-39.18,54.55-8.79,17.75-14.93,36.56-18.3,56.03-19.72,8.43-35.64,15.29-47.4,20.44-8.13,3.56-14.43,6.36-18.73,8.34-2.49,1.15-4.36,2.04-5.71,2.72-.99.5-1.75.92-2.42,1.32-8.01,4.81-9.53,12.91-8.4,18.47h0s0,.03,0,.04c0,.04.02.07.02.11,1.16,5.38,5.39,11.67,13.86,13.37.76.15,1.6.28,2.66.41,1.39.17,3.26.34,5.74.54,4.25.34,10.43.74,18.39,1.21,10.63.62,24.61,1.36,41.67,2.2,7.44,45.43,29.88,87.08,64.14,118.56,38.21,35.1,87.84,54.43,139.76,54.43h1030.9c27.89,0,54.95-5.47,80.43-16.24,24.6-10.41,46.7-25.3,65.68-44.27,18.97-18.98,33.87-41.07,44.27-65.68,10.78-25.48,16.24-52.55,16.24-80.43s-5.47-54.95-16.24-80.43c-10.41-24.61-25.3-46.7-44.27-65.67-18.97-18.97-41.07-33.87-65.67-44.27-25.48-10.78-52.55-16.24-80.43-16.24h0Z"/>
  </g>
  <g>
    <g>
      <path d="M986.73,371.59c-10.24,0-19.3-4.64-25.5-13.06-5.06-6.87-7.52-15.62-7.52-26.74v-96.53h-8.32c-12.96,0-20.68-5.68-24.88-10.44-3.75-4.25-8.23-11.68-8.23-22.91s4.75-19.21,8.74-23.49c4.24-4.55,11.91-9.97,24.38-9.97h82.53c13.03,0,20.79,5.71,25.01,10.49,5.42,6.15,8.28,14.09,8.28,22.96,0,11.35-4.62,18.83-8.5,23.11-4.23,4.67-11.97,10.24-24.79,10.24h-8.32v96.53c0,11.19-2.45,19.96-7.48,26.79-6.18,8.39-15.19,13.01-25.37,13.01Z"/>
      <path d="M1142.34,371.59c-5.84,0-11.17-1.48-15.85-4.41-4.02-2.52-7.38-5.88-9.98-10-1.84-2.91-3.48-6.5-5.15-11.29-1.17-3.35-2.2-6.37-3.05-8.95l-.14-.43-1.81-5.95h-22.36l-1.87,6.27c-2.98,10.01-5.5,16.45-8.15,20.86-5.33,8.84-14.6,13.9-25.44,13.9-9.18,0-17.7-4.14-23.99-11.64-5.51-6.57-8.43-14.53-8.43-23.02,0-3.82.5-7.73,1.47-11.64.69-2.78,1.75-6.37,3.23-10.96l32.76-104.1c.88-2.81,3.35-10.74,3.35-10.74,1.7-5.45,3.55-10.01,5.66-13.93,2.96-5.52,6.97-10.09,11.92-13.6,5.77-4.09,12.87-6.25,20.52-6.25s14.75,2.1,20.61,6.25c4.9,3.47,8.87,7.94,11.81,13.29,2.08,3.77,3.84,7.84,5.24,12.1,1.07,3.26,2.41,7.52,3.98,12.69l33.4,103.26c3.41,10.26,4.93,17.48,4.93,23.41,0,8.24-2.8,16.09-8.09,22.71-6.27,7.85-15,12.17-24.59,12.17Z"/>
      <path d="M1189.46,368.85c-15.02,0-23.46-6.7-27.89-12.31-5.39-6.83-8.02-15.86-8.02-27.6v-123.54c0-10.96,2.39-19.62,7.3-26.45,6.14-8.54,15.22-13.25,25.55-13.25s19.31,4.59,25.52,12.92c5.11,6.86,7.59,15.62,7.59,26.78v96.75h32.63c9.89,0,18.66,3.77,24.68,10.62,5.46,6.22,8.35,14.11,8.35,22.84s-2.94,16.87-8.5,23c-4.23,4.67-11.92,10.24-24.53,10.24h-62.68Z"/>
      <path d="M1379.08,371.59c-8.35,0-15.89-2.65-21.78-7.66-4.37-3.71-7.99-8.47-10.78-14.15-1.53-3.13-2.94-6.06-4.18-8.71l-13.98-26.93v17.65c0,11.28-2.52,20.11-7.71,26.98-6.24,8.27-15.26,12.82-25.41,12.82-6.37,0-12.6-2.05-18.01-5.92-4.96-3.55-8.78-8.27-11.35-14.03l-.16-.36-.14-.36c-1.6-3.99-2.56-8.45-2.87-13.25-.21-3.16-.3-7.41-.3-13v-119.27c0-10.88,2.32-19.47,7.08-26.26,6.07-8.66,15.23-13.44,25.77-13.44s19.31,4.59,25.52,12.92c4.69,6.3,7.17,14.2,7.54,24.09l15.14-19.76c3.23-4.23,6.12-7.48,8.82-9.88,3.77-3.36,10.33-7.37,20.17-7.37s18.25,3.98,24.35,11.22c5.34,6.34,8.16,14.26,8.16,22.9,0,9.54-3.54,18.6-10.52,26.95l-22.7,26.92,29.6,53.09c3.08,5.44,5.38,10.22,7.04,14.59,2.14,5.65,3.22,11.36,3.22,16.98,0,8.33-2.82,16.04-8.16,22.29-6.04,7.07-14.68,10.95-24.35,10.95Z"/>
    </g>
    <path class="cls-2" d="M1308.35,205.4v56.24l50.97-66.53c2.45-3.21,4.53-5.58,6.25-7.11,1.72-1.53,4.01-2.3,6.86-2.3,3.73,0,6.75,1.37,9.05,4.1,2.3,2.74,3.45,6.07,3.45,10.01,0,4.74-1.95,9.45-5.86,14.12l-31.56,37.42,36.37,65.21c2.56,4.52,4.49,8.48,5.77,11.87,1.28,3.39,1.92,6.69,1.92,9.9,0,3.58-1.12,6.67-3.37,9.3-2.25,2.63-5.29,3.94-9.14,3.94-3.61,0-6.56-.97-8.83-2.9-2.27-1.93-4.2-4.5-5.77-7.71-1.57-3.21-2.97-6.13-4.2-8.75l-30.68-59.09-21.24,25.5v33.15c0,6.71-1.22,11.69-3.67,14.94-2.45,3.25-5.59,4.87-9.44,4.87-2.21,0-4.34-.73-6.38-2.19-2.04-1.46-3.61-3.43-4.72-5.91-.82-2.04-1.31-4.41-1.49-7.11-.17-2.7-.26-6.6-.26-11.71v-119.27c0-6.56,1.15-11.49,3.45-14.77,2.3-3.28,5.43-4.92,9.4-4.92s7.07,1.62,9.49,4.87c2.42,3.25,3.63,8.19,3.63,14.83Z"/>
    <path class="cls-2" d="M1027.91,215.25h-28.32v116.53c0,6.71-1.2,11.69-3.58,14.94-2.39,3.25-5.48,4.87-9.27,4.87s-6.98-1.64-9.4-4.92c-2.42-3.28-3.63-8.24-3.63-14.88v-116.53h-28.32c-4.43,0-7.72-1.22-9.88-3.67-2.16-2.44-3.24-5.67-3.24-9.68s1.12-7.44,3.37-9.85c2.24-2.41,5.49-3.61,9.75-3.61h82.53c4.49,0,7.82,1.24,10.01,3.72,2.19,2.48,3.28,5.73,3.28,9.74s-1.11,7.24-3.32,9.68c-2.22,2.44-5.54,3.67-9.97,3.67Z"/>
    <path class="cls-2" d="M1127.3,330.69l-6.12-20.13h-52.1l-6.12,20.57c-2.39,8.03-4.43,13.44-6.12,16.25-1.69,2.81-4.46,4.21-8.31,4.21-3.26,0-6.15-1.5-8.65-4.49-2.51-2.99-3.76-6.38-3.76-10.18,0-2.19.29-4.45.87-6.78.58-2.33,1.54-5.58,2.88-9.74l32.78-104.17c.93-2.99,2.05-6.58,3.37-10.78,1.31-4.19,2.71-7.68,4.2-10.45,1.49-2.77,3.44-5.01,5.86-6.73,2.42-1.71,5.4-2.57,8.96-2.57s6.63.86,9.05,2.57c2.42,1.71,4.37,3.92,5.86,6.62,1.49,2.7,2.74,5.6,3.76,8.7,1.02,3.1,2.32,7.24,3.89,12.42l33.48,103.51c2.62,7.88,3.93,13.61,3.93,17.18s-1.24,7.13-3.71,10.23c-2.48,3.1-5.46,4.65-8.96,4.65-2.04,0-3.79-.46-5.25-1.37-1.46-.91-2.68-2.15-3.67-3.72-.99-1.57-2.05-3.98-3.19-7.22-1.14-3.25-2.11-6.11-2.93-8.59ZM1075.9,286.15h38.29l-19.32-66.2-18.97,66.2Z"/>
    <path class="cls-2" d="M1199.51,205.4v116.75h52.63c4.2,0,7.42,1.28,9.66,3.83,2.24,2.55,3.37,5.76,3.37,9.63s-1.11,7.13-3.32,9.57c-2.22,2.44-5.45,3.67-9.7,3.67h-62.68c-5.65,0-9.72-1.57-12.2-4.71-2.48-3.14-3.71-8.21-3.71-15.21v-123.54c0-6.56,1.18-11.49,3.54-14.77,2.36-3.28,5.46-4.92,9.31-4.92s7.07,1.62,9.49,4.87c2.42,3.25,3.63,8.19,3.63,14.83Z"/>
  </g>
  <g>
    <g>
      <path d="M1487.97,384.43c-10.46,0-19.72-4.74-26.06-13.36-5.21-7.07-7.74-16.1-7.74-27.63v-103.45h-10.01c-13.28,0-21.18-5.79-25.47-10.66-3.84-4.35-8.42-11.96-8.42-23.49s4.86-19.7,8.94-24.07c4.33-4.64,12.17-10.19,24.96-10.19h87.43c13.36,0,21.3,5.83,25.61,10.71,5.54,6.3,8.47,14.43,8.47,23.54,0,11.64-4.73,19.31-8.7,23.69-4.32,4.77-12.23,10.45-25.38,10.45h-10.01v103.45c0,11.59-2.52,20.65-7.69,27.68-6.32,8.58-15.53,13.3-25.92,13.3Z"/>
      <path d="M1652.81,384.43c-5.96,0-11.39-1.51-16.16-4.49-4.12-2.58-7.55-6.02-10.2-10.23-1.89-2.99-3.59-6.72-5.34-11.71-1.27-3.63-2.33-6.73-3.23-9.46l-.13-.43-2.17-7.15h-25.46l-2.23,7.5c-3.13,10.51-5.76,17.24-8.52,21.82-5.42,9-14.87,14.15-25.94,14.15-9.37,0-18.07-4.23-24.5-11.91-5.66-6.75-8.65-14.92-8.65-23.62,0-3.94.51-7.98,1.52-12.03.73-2.93,1.85-6.71,3.41-11.55l34.71-110.29c.97-3.12,2.16-6.93,3.55-11.38,1.78-5.7,3.71-10.46,5.91-14.55,3.04-5.67,7.17-10.38,12.26-14,6.01-4.26,13.09-6.41,21.06-6.41s15.14,2.15,21.14,6.4c5.05,3.58,9.13,8.18,12.17,13.69,2.16,3.93,4,8.17,5.46,12.61,1.13,3.45,2.55,7.96,4.21,13.43l35.39,109.41c3.57,10.74,5.17,18.28,5.17,24.44,0,8.45-2.87,16.52-8.31,23.32-6.42,8.03-15.34,12.45-25.12,12.45Z"/>
      <path d="M1701.16,384.43c-10.38,0-19.59-4.79-25.93-13.5-5.17-7.09-7.68-16.08-7.68-27.48v-133.89c0-11.4,2.5-20.37,7.63-27.42,6.3-8.67,15.53-13.44,25.98-13.44s19.74,4.69,26.08,13.21c5.26,7.06,7.81,16.1,7.81,27.66v133.89c0,11.52-2.53,20.55-7.74,27.63-6.35,8.61-15.63,13.36-26.15,13.36Z"/>
      <path d="M1789.79,384.43c-10.46,0-19.7-4.73-26.02-13.31-5.17-7.02-7.69-16.08-7.69-27.68v-49.05l-31.04-60.23c-3.25-6.5-5.55-11.59-7.03-15.56-2.06-5.54-3.05-10.58-3.05-15.42,0-8.69,2.92-16.71,8.44-23.18,6.22-7.29,14.83-11.31,24.24-11.31,10.2,0,18.98,4.34,24.73,12.21,2.73,3.74,5.99,9.59,10.56,18.94l7.5,15.25,7.61-15.31c1.52-3.12,2.8-5.75,3.84-7.89,1.45-2.99,3.08-5.84,4.84-8.48,2.77-4.14,6.11-7.51,9.93-9.99,4.77-3.1,10.5-4.74,16.56-4.74,9.44,0,18.01,4.1,24.12,11.54,5.25,6.39,8.01,14.17,8.01,22.49,0,5.49-1.05,10.97-3.12,16.29-1.47,3.77-3.75,8.54-6.96,14.59l-31.69,60.84v49.01c0,11.56-2.57,20.63-7.86,27.72-6.38,8.55-15.59,13.26-25.94,13.26Z"/>
      <path d="M1955.19,384.43c-5.96,0-11.39-1.51-16.16-4.49-4.12-2.58-7.55-6.02-10.2-10.23-1.89-2.99-3.59-6.72-5.34-11.72-1.27-3.63-2.33-6.73-3.23-9.46l-.13-.43-2.17-7.15h-25.46l-2.23,7.5c-3.13,10.51-5.76,17.24-8.52,21.82-5.42,9-14.87,14.15-25.94,14.15-9.37,0-18.07-4.23-24.5-11.91-5.66-6.75-8.65-14.92-8.65-23.62,0-3.94.51-7.98,1.52-12.03.73-2.93,1.85-6.71,3.41-11.55l34.71-110.29c.97-3.12,2.16-6.93,3.55-11.38,1.78-5.7,3.71-10.46,5.91-14.55,3.04-5.67,7.17-10.38,12.26-14,6.01-4.26,13.09-6.41,21.06-6.41s15.14,2.15,21.14,6.4c5.05,3.58,9.13,8.18,12.17,13.69,2.16,3.93,4,8.17,5.46,12.61,1.13,3.45,2.55,7.96,4.21,13.42l35.39,109.41c3.57,10.74,5.16,18.28,5.16,24.44,0,8.45-2.87,16.51-8.31,23.32-6.42,8.03-15.34,12.45-25.12,12.45Z"/>
      <path d="M2091.43,384.43c-8.56,0-16.28-2.71-22.31-7.83-4.5-3.83-8.24-8.74-11.12-14.61-1.63-3.32-3.12-6.43-4.43-9.23l-17.07-32.87v23.56c0,11.68-2.59,20.8-7.92,27.87-6.38,8.46-15.6,13.12-25.97,13.12-6.5,0-12.86-2.09-18.4-6.05-5.08-3.63-9-8.47-11.63-14.38l-.16-.36-.14-.36c-1.65-4.12-2.64-8.72-2.96-13.67-.22-3.31-.32-7.79-.32-13.69v-126.35c0-11.27,2.38-20.15,7.29-27.13,6.21-8.85,15.56-13.73,26.33-13.73s19.73,4.69,26.08,13.2c5.26,7.06,7.81,16.11,7.81,27.66v.59l18.12-23.65c3.38-4.42,6.39-7.81,9.19-10.3,3.84-3.42,10.53-7.5,20.58-7.5s18.66,4.07,24.88,11.47c5.47,6.5,8.36,14.62,8.36,23.49,0,9.82-3.66,19.17-10.86,27.78l-24.58,29.14,31.76,56.96c3.24,5.72,5.65,10.72,7.38,15.3,2.21,5.85,3.33,11.76,3.33,17.56,0,8.54-2.89,16.44-8.36,22.84-6.17,7.21-15,11.19-24.89,11.19Z"/>
      <path d="M2143.94,384.43c-10.38,0-19.59-4.79-25.93-13.5-5.17-7.09-7.68-16.08-7.68-27.48v-133.89c0-11.4,2.5-20.37,7.63-27.42,6.3-8.67,15.53-13.44,25.98-13.44s19.74,4.69,26.08,13.21c5.26,7.06,7.81,16.1,7.81,27.66v133.89c0,11.52-2.53,20.55-7.74,27.63-6.35,8.61-15.63,13.36-26.15,13.36Z"/>
    </g>
    <g>
      <path class="cls-2" d="M1531.59,219.99h-30.01v123.45c0,7.11-1.27,12.38-3.8,15.82-2.53,3.44-5.8,5.16-9.82,5.16s-7.39-1.74-9.96-5.22c-2.56-3.48-3.84-8.73-3.84-15.76v-123.45h-30.01c-4.69,0-8.18-1.29-10.46-3.88-2.29-2.59-3.43-6.01-3.43-10.26s1.19-7.88,3.57-10.43c2.38-2.55,5.82-3.83,10.33-3.83h87.43c4.75,0,8.29,1.32,10.6,3.94,2.32,2.63,3.47,6.07,3.47,10.32s-1.17,7.67-3.52,10.26c-2.35,2.59-5.87,3.88-10.56,3.88Z"/>
      <path class="cls-2" d="M1636.89,342.29l-6.48-21.33h-55.2l-6.48,21.79c-2.53,8.5-4.69,14.24-6.48,17.21-1.79,2.97-4.72,4.46-8.8,4.46-3.46,0-6.51-1.58-9.17-4.75-2.66-3.17-3.98-6.76-3.98-10.78,0-2.32.31-4.71.93-7.19.62-2.47,1.64-5.91,3.06-10.32l34.73-110.35c.99-3.17,2.18-6.97,3.57-11.42,1.39-4.44,2.87-8.13,4.45-11.07,1.57-2.94,3.64-5.31,6.21-7.13,2.56-1.81,5.73-2.72,9.49-2.72s7.02.91,9.58,2.72c2.56,1.82,4.63,4.16,6.21,7.01,1.57,2.86,2.9,5.93,3.98,9.22,1.08,3.29,2.45,7.67,4.12,13.16l35.47,109.66c2.78,8.35,4.17,14.41,4.17,18.2s-1.31,7.55-3.94,10.84c-2.62,3.28-5.79,4.93-9.49,4.93-2.16,0-4.01-.48-5.56-1.45-1.54-.97-2.84-2.28-3.89-3.94-1.05-1.66-2.18-4.21-3.38-7.65-1.2-3.44-2.24-6.47-3.1-9.1ZM1582.43,295.11h40.56l-20.47-70.13-20.1,70.13Z"/>
      <path class="cls-2" d="M1687.54,343.45v-133.89c0-6.96,1.26-12.17,3.8-15.65,2.53-3.48,5.8-5.22,9.82-5.22s7.49,1.72,10.05,5.16c2.56,3.44,3.84,8.68,3.84,15.71v133.89c0,7.03-1.28,12.29-3.84,15.76-2.56,3.48-5.91,5.22-10.05,5.22s-7.21-1.76-9.77-5.27c-2.56-3.52-3.84-8.75-3.84-15.71Z"/>
      <path class="cls-2" d="M1776.08,343.45v-53.9l-33.16-64.33c-2.9-5.8-4.96-10.32-6.16-13.56-1.2-3.25-1.81-6.07-1.81-8.46,0-3.94,1.22-7.34,3.66-10.2,2.44-2.86,5.45-4.29,9.03-4.29,3.77,0,6.62,1.33,8.57,4,1.95,2.67,4.86,7.98,8.75,15.94l25.38,51.58,25.65-51.58c1.54-3.17,2.84-5.83,3.89-8,1.05-2.16,2.21-4.19,3.47-6.09,1.26-1.89,2.67-3.34,4.21-4.35,1.54-1,3.43-1.51,5.65-1.51,3.46,0,6.34,1.41,8.66,4.23,2.31,2.82,3.47,6.08,3.47,9.79,0,3.01-.59,6.03-1.76,9.04-1.17,3.01-3.18,7.19-6.02,12.52l-33.99,65.26v53.9c0,7.03-1.3,12.29-3.89,15.76-2.59,3.48-5.9,5.22-9.91,5.22s-7.38-1.72-9.91-5.16c-2.53-3.44-3.8-8.71-3.8-15.82Z"/>
      <path class="cls-2" d="M1939.26,342.29l-6.48-21.33h-55.2l-6.48,21.79c-2.53,8.5-4.69,14.24-6.48,17.21-1.79,2.97-4.72,4.46-8.8,4.46-3.46,0-6.51-1.58-9.17-4.75-2.66-3.17-3.98-6.76-3.98-10.78,0-2.32.31-4.71.93-7.19.62-2.47,1.64-5.91,3.06-10.32l34.73-110.35c.99-3.17,2.18-6.97,3.57-11.42,1.39-4.44,2.87-8.13,4.45-11.07,1.57-2.94,3.64-5.31,6.21-7.13,2.56-1.81,5.73-2.72,9.49-2.72s7.02.91,9.58,2.72c2.56,1.82,4.63,4.16,6.21,7.01,1.57,2.86,2.9,5.93,3.98,9.22,1.08,3.29,2.45,7.67,4.12,13.16l35.47,109.66c2.78,8.35,4.17,14.41,4.17,18.2s-1.31,7.55-3.94,10.84c-2.62,3.28-5.79,4.93-9.49,4.93-2.16,0-4.01-.48-5.56-1.45-1.54-.97-2.84-2.28-3.89-3.94-1.05-1.66-2.18-4.21-3.38-7.65-1.2-3.44-2.24-6.47-3.1-9.1ZM1884.81,295.11h40.56l-20.47-70.13-20.1,70.13Z"/>
      <path class="cls-2" d="M2016.5,209.56v59.58l53.99-70.48c2.59-3.4,4.8-5.91,6.62-7.53s4.25-2.43,7.27-2.43c3.95,0,7.15,1.45,9.58,4.35,2.44,2.9,3.66,6.43,3.66,10.61,0,5.02-2.07,10.01-6.21,14.95l-33.43,39.64,38.53,69.09c2.72,4.79,4.75,8.98,6.11,12.58,1.36,3.59,2.04,7.09,2.04,10.49,0,3.79-1.19,7.07-3.57,9.85-2.38,2.78-5.6,4.17-9.68,4.17-3.83,0-6.95-1.03-9.35-3.07s-4.45-4.77-6.11-8.17c-1.67-3.4-3.15-6.49-4.45-9.27l-32.51-62.6-22.5,27.01v35.12c0,7.11-1.3,12.38-3.89,15.82-2.59,3.44-5.93,5.16-10,5.16-2.35,0-4.6-.77-6.76-2.32-2.16-1.55-3.83-3.63-5-6.26-.87-2.16-1.39-4.67-1.57-7.54-.19-2.86-.28-6.99-.28-12.4v-126.35c0-6.96,1.22-12.17,3.66-15.65,2.44-3.48,5.76-5.22,9.96-5.22s7.49,1.72,10.05,5.16c2.56,3.44,3.84,8.68,3.84,15.71Z"/>
      <path class="cls-2" d="M2130.32,343.45v-133.89c0-6.96,1.26-12.17,3.8-15.65,2.53-3.48,5.8-5.22,9.82-5.22s7.49,1.72,10.05,5.16c2.56,3.44,3.84,8.68,3.84,15.71v133.89c0,7.03-1.28,12.29-3.84,15.76-2.56,3.48-5.91,5.22-10.05,5.22s-7.21-1.76-9.77-5.27c-2.56-3.52-3.84-8.75-3.84-15.71Z"/>
    </g>
  </g>
</svg>